<?xml version="1.0" standalone="no"?>
<!DOCTYPE svg PUBLIC "-//W3C//DTD SVG 20010904//EN"
 "http://www.w3.org/TR/2001/REC-SVG-20010904/DTD/svg10.dtd">
<svg version="1.0" xmlns="http://www.w3.org/2000/svg"
 width="32.000000pt" height="32.000000pt" viewBox="0 0 32.000000 32.000000"
 preserveAspectRatio="xMidYMid meet">

<g transform="translate(0.000000,32.000000) scale(0.100000,-0.100000)"
fill="#ffffff" stroke="none">
<path d="M84 301 c-112 -68 -108 -220 6 -279 80 -41 178 -8 217 74 20 41 12
52 -21 30 -49 -32 -126 -13 -160 40 -18 26 -18 79 -1 132 9 27 0 28 -41 3z
m29 -154 c25 -39 72 -59 123 -55 24 2 44 0 44 -4 0 -15 -61 -56 -93 -62 -45
-8 -111 17 -136 53 -39 55 -34 130 11 179 l23 24 5 -54 c3 -30 13 -66 23 -81z"/>
</g>
</svg>
